{
	"asset":{
		"generator":"Khronos glTF Blender I/O v3.5.30",
		"version":"2.0"
	},
	"extensionsUsed":[
		"KHR_materials_specular",
		"KHR_materials_ior",
		"KHR_lights_punctual"
	],
	"extensionsRequired":[
		"KHR_lights_punctual"
	],
	"extensions":{
		"KHR_lights_punctual":{
			"lights":[
				{
					"color":[
						1,
						1,
						1
					],
					"intensity":108702.82613176452,
					"spot":{
						"innerConeAngle":0.1202139974377836,
						"outerConeAngle":0.39269909262657166
					},
					"type":"spot",
					"name":"Spot"
				},
				{
					"color":[
						1,
						1,
						1
					],
					"intensity":683,
					"type":"directional",
					"name":"Sun"
				},
				{
					"color":[
						0.7428029775619507,
						1,
						0.9425976276397705
					],
					"intensity":543.5141306588226,
					"type":"point",
					"name":"Point"
				},
				{
					"color":[
						1,
						0.9721973538398743,
						0.8166637420654297
					],
					"intensity":543.5141306588226,
					"type":"point",
					"name":"Point.001"
				},
				{
					"color":[
						1,
						0.9971615076065063,
						0.832169771194458
					],
					"intensity":543.5141306588226,
					"type":"point",
					"name":"Point.002"
				}
			]
		}
	},
	"scene":0,
	"scenes":[
		{
			"name":"Scene",
			"nodes":[
				0,
				1,
				2,
				3,
				4,
				6,
				8,
				10
			]
		}
	],
	"nodes":[
		{
			"mesh":0,
			"name":"Plane",
			"scale":[
				7.787927627563477,
				7.787927627563477,
				7.787927627563477
			]
		},
		{
			"mesh":1,
			"name":"Cube",
			"translation":[
				0,
				1,
				0
			]
		},
		{
			"extensions":{
				"KHR_lights_punctual":{
					"light":0
				}
			},
			"name":"Spot",
			"rotation":[
				-0.22868850827217102,
				0.02245691418647766,
				0.10178135335445404,
				0.9679039120674133
			],
			"scale":[
				0.2159760743379593,
				0.2159760296344757,
				0.2159760445356369
			],
			"translation":[
				-0.05583906173706055,
				6.886867523193359,
				12.554039001464844
			]
		},
		{
			"camera":0,
			"name":"Camera",
			"rotation":[
				-0.2997073233127594,
				-0.4785805940628052,
				-0.17798195779323578,
				0.8058900833129883
			],
			"translation":[
				-11.250348091125488,
				11.314788818359375,
				6.172381401062012
			]
		},
		{
			"extensions":{
				"KHR_lights_punctual":{
					"light":1
				}
			},
			"name":"Sun",
			"rotation":[
				-0.48961082100868225,
				0.07757431268692017,
				0.31905773282051086,
				0.8077536225318909
			],
			"translation":[
				-3.842776298522949,
				16.397008895874023,
				12.779909133911133
			]
		},
		{
			"extensions":{
				"KHR_lights_punctual":{
					"light":2
				}
			},
			"name":"Point",
			"rotation":[
				-0.7071068286895752,
				0,
				0,
				0.7071068286895752
			],
			"scale":[
				8.047649383544922,
				8.047648429870605,
				8.047648429870605
			]
		},
		{
			"children":[
				5
			],
			"mesh":2,
			"name":"Sphere",
			"scale":[
				0.12425988912582397,
				0.12425988912582397,
				0.12425988912582397
			],
			"translation":[
				-1.0221880674362183,
				2.8653011322021484,
				-1.7260088920593262
			]
		},
		{
			"extensions":{
				"KHR_lights_punctual":{
					"light":3
				}
			},
			"name":"Point.001",
			"rotation":[
				-0.7071068286895752,
				0,
				0,
				0.7071068286895752
			],
			"scale":[
				8.047649383544922,
				8.047648429870605,
				8.047648429870605
			]
		},
		{
			"children":[
				7
			],
			"mesh":3,
			"name":"Sphere.001",
			"scale":[
				0.12425988912582397,
				0.12425988912582397,
				0.12425988912582397
			],
			"translation":[
				-2.0893876552581787,
				1.909839391708374,
				1.06410813331604
			]
		},
		{
			"extensions":{
				"KHR_lights_punctual":{
					"light":4
				}
			},
			"name":"Point.002",
			"rotation":[
				-0.7071068286895752,
				0,
				0,
				0.7071068286895752
			],
			"scale":[
				8.047649383544922,
				8.047648429870605,
				8.047648429870605
			]
		},
		{
			"children":[
				9
			],
			"mesh":4,
			"name":"Sphere.002",
			"scale":[
				0.12425988912582397,
				0.12425988912582397,
				0.12425988912582397
			],
			"translation":[
				0.4207148551940918,
				1.065201759338379,
				1.5412232875823975
			]
		}
	],
	"cameras":[
		{
			"name":"Camera.001",
			"perspective":{
				"aspectRatio":1.7777777777777777,
				"yfov":0.39959652046304894,
				"zfar":1000,
				"znear":0.10000000149011612
			},
			"type":"perspective"
		}
	],
	"materials":[
		{
			"doubleSided":true,
			"name":"Material.001",
			"pbrMetallicRoughness":{
				"baseColorTexture":{
					"index":0
				},
				"metallicFactor":0,
				"roughnessFactor":0.5
			}
		},
		{
			"doubleSided":true,
			"extensions":{
				"KHR_materials_specular":{
					"specularColorFactor":[
						0,
						0,
						0
					]
				},
				"KHR_materials_ior":{
					"ior":1.4500000476837158
				}
			},
			"name":"Material.002",
			"pbrMetallicRoughness":{
				"baseColorTexture":{
					"index":1
				},
				"metallicFactor":0,
				"roughnessFactor":0
			}
		}
	],
	"meshes":[
		{
			"name":"Plane",
			"primitives":[
				{
					"attributes":{
						"POSITION":0,
						"TEXCOORD_0":1,
						"NORMAL":2
					},
					"indices":3,
					"material":0
				}
			]
		},
		{
			"name":"Cube.001",
			"primitives":[
				{
					"attributes":{
						"POSITION":4,
						"TEXCOORD_0":5,
						"NORMAL":6
					},
					"indices":7,
					"material":1
				}
			]
		},
		{
			"name":"Sphere",
			"primitives":[
				{
					"attributes":{
						"POSITION":8,
						"TEXCOORD_0":9,
						"NORMAL":10
					},
					"indices":11
				}
			]
		},
		{
			"name":"Sphere.001",
			"primitives":[
				{
					"attributes":{
						"POSITION":12,
						"TEXCOORD_0":13,
						"NORMAL":14
					},
					"indices":11
				}
			]
		},
		{
			"name":"Sphere.002",
			"primitives":[
				{
					"attributes":{
						"POSITION":15,
						"TEXCOORD_0":16,
						"NORMAL":17
					},
					"indices":11
				}
			]
		}
	],
	"textures":[
		{
			"sampler":0,
			"source":0
		},
		{
			"sampler":0,
			"source":1
		}
	],
	"images":[
		{
			"bufferView":4,
			"mimeType":"image/jpeg",
			"name":"istockphoto-1410017441-612x612"
		},
		{
			"bufferView":9,
			"mimeType":"image/jpeg",
			"name":"istockphoto-186044156-612x612"
		}
	],
	"accessors":[
		{
			"bufferView":0,
			"componentType":5126,
			"count":4,
			"max":[
				1,
				0,
				1
			],
			"min":[
				-1,
				0,
				-1
			],
			"type":"VEC3"
		},
		{
			"bufferView":1,
			"componentType":5126,
			"count":4,
			"type":"VEC2"
		},
		{
			"bufferView":2,
			"componentType":5126,
			"count":4,
			"type":"VEC3"
		},
		{
			"bufferView":3,
			"componentType":5123,
			"count":6,
			"type":"SCALAR"
		},
		{
			"bufferView":5,
			"componentType":5126,
			"count":24,
			"max":[
				1,
				1,
				1
			],
			"min":[
				-1,
				-1,
				-1
			],
			"type":"VEC3"
		},
		{
			"bufferView":6,
			"componentType":5126,
			"count":24,
			"type":"VEC2"
		},
		{
			"bufferView":7,
			"componentType":5126,
			"count":24,
			"type":"VEC3"
		},
		{
			"bufferView":8,
			"componentType":5123,
			"count":36,
			"type":"SCALAR"
		},
		{
			"bufferView":10,
			"componentType":5126,
			"count":151,
			"max":[
				1,
				1,
				1
			],
			"min":[
				-0.9999999403953552,
				-1,
				-1
			],
			"type":"VEC3"
		},
		{
			"bufferView":11,
			"componentType":5126,
			"count":151,
			"type":"VEC2"
		},
		{
			"bufferView":12,
			"componentType":5126,
			"count":151,
			"type":"VEC3"
		},
		{
			"bufferView":13,
			"componentType":5123,
			"count":672,
			"type":"SCALAR"
		},
		{
			"bufferView":14,
			"componentType":5126,
			"count":151,
			"max":[
				1,
				1,
				1
			],
			"min":[
				-0.9999999403953552,
				-1,
				-1
			],
			"type":"VEC3"
		},
		{
			"bufferView":15,
			"componentType":5126,
			"count":151,
			"type":"VEC2"
		},
		{
			"bufferView":16,
			"componentType":5126,
			"count":151,
			"type":"VEC3"
		},
		{
			"bufferView":17,
			"componentType":5126,
			"count":151,
			"max":[
				1,
				1,
				1
			],
			"min":[
				-0.9999999403953552,
				-1,
				-1
			],
			"type":"VEC3"
		},
		{
			"bufferView":18,
			"componentType":5126,
			"count":151,
			"type":"VEC2"
		},
		{
			"bufferView":19,
			"componentType":5126,
			"count":151,
			"type":"VEC3"
		}
	],
	"bufferViews":[
		{
			"buffer":0,
			"byteLength":48,
			"byteOffset":0,
			"target":34962
		},
		{
			"buffer":0,
			"byteLength":32,
			"byteOffset":48,
			"target":34962
		},
		{
			"buffer":0,
			"byteLength":48,
			"byteOffset":80,
			"target":34962
		},
		{
			"buffer":0,
			"byteLength":12,
			"byteOffset":128,
			"target":34963
		},
		{
			"buffer":0,
			"byteLength":59103,
			"byteOffset":140
		},
		{
			"buffer":0,
			"byteLength":288,
			"byteOffset":59244,
			"target":34962
		},
		{
			"buffer":0,
			"byteLength":192,
			"byteOffset":59532,
			"target":34962
		},
		{
			"buffer":0,
			"byteLength":288,
			"byteOffset":59724,
			"target":34962
		},
		{
			"buffer":0,
			"byteLength":72,
			"byteOffset":60012,
			"target":34963
		},
		{
			"buffer":0,
			"byteLength":162608,
			"byteOffset":60084
		},
		{
			"buffer":0,
			"byteLength":1812,
			"byteOffset":222692,
			"target":34962
		},
		{
			"buffer":0,
			"byteLength":1208,
			"byteOffset":224504,
			"target":34962
		},
		{
			"buffer":0,
			"byteLength":1812,
			"byteOffset":225712,
			"target":34962
		},
		{
			"buffer":0,
			"byteLength":1344,
			"byteOffset":227524,
			"target":34963
		},
		{
			"buffer":0,
			"byteLength":1812,
			"byteOffset":228868,
			"target":34962
		},
		{
			"buffer":0,
			"byteLength":1208,
			"byteOffset":230680,
			"target":34962
		},
		{
			"buffer":0,
			"byteLength":1812,
			"byteOffset":231888,
			"target":34962
		},
		{
			"buffer":0,
			"byteLength":1812,
			"byteOffset":233700,
			"target":34962
		},
		{
			"buffer":0,
			"byteLength":1208,
			"byteOffset":235512,
			"target":34962
		},
		{
			"buffer":0,
			"byteLength":1812,
			"byteOffset":236720,
			"target":34962
		}
	],
	"samplers":[
		{
			"magFilter":9729,
			"minFilter":9987
		}
	],
	"buffers":[
		{
			"byteLength":238532,
			"uri":"data:application/octet-stream;base64,"
		}
	]
}
