{
	"asset":{
		"generator":"Khronos glTF Blender I/O v3.5.30",
		"version":"2.0"
	},
	"extensionsUsed":[
		"KHR_lights_punctual"
	],
	"extensionsRequired":[
		"KHR_lights_punctual"
	],
	"extensions":{
		"KHR_lights_punctual":{
			"lights":[
				{
					"color":[
						1,
						1,
						1
					],
					"intensity":683,
					"type":"directional",
					"name":"Sun"
				},
				{
					"color":[
						1,
						1,
						1
					],
					"intensity":543.5141306588226,
					"spot":{
						"innerConeAngle":0.09336619640631483,
						"outerConeAngle":0.39269909262657166
					},
					"type":"spot",
					"name":"Spot"
				}
			]
		}
	},
	"scene":0,
	"scenes":[
		{
			"name":"Scene",
			"nodes":[
				0,
				1,
				2,
				3,
				4,
				5,
				6
			]
		}
	],
	"nodes":[
		{
			"mesh":0,
			"name":"Plane",
			"scale":[
				15.529684066772461,
				13.469560623168945,
				16.504732131958008
			],
			"translation":[
				-7.647011756896973,
				0,
				-10.428078651428223
			]
		},
		{
			"mesh":1,
			"name":"Cube",
			"translation":[
				-1.419233798980713,
				1,
				0
			]
		},
		{
			"mesh":2,
			"name":"Torus",
			"rotation":[
				0.3822689950466156,
				0.10323747992515564,
				-0.2394142895936966,
				0.886506199836731
			],
			"scale":[
				1.6419950723648071,
				1.6419950723648071,
				1.6419950723648071
			],
			"translation":[
				2.4747519493103027,
				1.7111057043075562,
				-2.94846510887146
			]
		},
		{
			"mesh":3,
			"name":"Suzanne",
			"rotation":[
				0.009076927788555622,
				0.22531309723854065,
				0.03159203380346298,
				0.9737318158149719
			],
			"scale":[
				1.9880138635635376,
				1.9880142211914062,
				1.9880139827728271
			],
			"translation":[
				-5.511885166168213,
				1.9575936794281006,
				-0.6152737140655518
			]
		},
		{
			"camera":0,
			"name":"Camera",
			"rotation":[
				-0.22414618730545044,
				0.14183954894542694,
				0.026255948469042778,
				0.9638208746910095
			],
			"translation":[
				4.309988021850586,
				10.984383583068848,
				16.90041732788086
			]
		},
		{
			"extensions":{
				"KHR_lights_punctual":{
					"light":0
				}
			},
			"name":"Sun",
			"rotation":[
				-0.675833523273468,
				0.12431012094020844,
				0.545600950717926,
				0.47970372438430786
			],
			"translation":[
				-22.31104850769043,
				25.605064392089844,
				0.937636137008667
			]
		},
		{
			"extensions":{
				"KHR_lights_punctual":{
					"light":1
				}
			},
			"name":"Spot",
			"rotation":[
				-0.6799503564834595,
				0.07528845220804214,
				-0.6145986914634705,
				0.39276939630508423
			],
			"scale":[
				0.28472885489463806,
				0.28472885489463806,
				0.28472885489463806
			],
			"translation":[
				11.4587984085083,
				5.850610733032227,
				0.7044649124145508
			]
		}
	],
	"cameras":[
		{
			"name":"Camera.001",
			"perspective":{
				"aspectRatio":1.7777777777777777,
				"yfov":0.39959652046304894,
				"zfar":1000,
				"znear":0.10000000149011612
			},
			"type":"perspective"
		}
	],
	"materials":[
		{
			"doubleSided":true,
			"name":"Material.001",
			"pbrMetallicRoughness":{
				"baseColorFactor":[
					0.800000011920929,
					0.800000011920929,
					0.800000011920929,
					1
				],
				"metallicFactor":0,
				"roughnessFactor":0.5
			}
		},
		{
			"doubleSided":true,
			"name":"Material.002",
			"pbrMetallicRoughness":{
				"baseColorFactor":[
					0.8000000715255737,
					0.10735781490802765,
					0.13006165623664856,
					1
				],
				"metallicFactor":0,
				"roughnessFactor":0.5
			}
		},
		{
			"doubleSided":true,
			"name":"Material.003",
			"pbrMetallicRoughness":{
				"baseColorFactor":[
					0.002481994219124317,
					0.8000000715255737,
					0.08140155673027039,
					1
				],
				"metallicFactor":0,
				"roughnessFactor":0.5
			}
		},
		{
			"doubleSided":true,
			"name":"Material.004",
			"pbrMetallicRoughness":{
				"baseColorFactor":[
					0.45753076672554016,
					0.25708600878715515,
					0.19609911739826202,
					1
				],
				"metallicFactor":0,
				"roughnessFactor":0.5
			}
		}
	],
	"meshes":[
		{
			"name":"Plane",
			"primitives":[
				{
					"attributes":{
						"POSITION":0,
						"TEXCOORD_0":1,
						"NORMAL":2
					},
					"indices":3,
					"material":0
				}
			]
		},
		{
			"name":"Cube.001",
			"primitives":[
				{
					"attributes":{
						"POSITION":4,
						"TEXCOORD_0":5,
						"NORMAL":6
					},
					"indices":7,
					"material":1
				}
			]
		},
		{
			"name":"Torus",
			"primitives":[
				{
					"attributes":{
						"POSITION":8,
						"TEXCOORD_0":9,
						"NORMAL":10
					},
					"indices":11,
					"material":2
				}
			]
		},
		{
			"name":"Suzanne",
			"primitives":[
				{
					"attributes":{
						"POSITION":12,
						"TEXCOORD_0":13,
						"NORMAL":14
					},
					"indices":15,
					"material":3
				},
				{
					"attributes":{
						"POSITION":16,
						"TEXCOORD_0":17,
						"NORMAL":18
					},
					"indices":19,
					"material":0
				},
				{
					"attributes":{
						"POSITION":20,
						"TEXCOORD_0":21,
						"NORMAL":22
					},
					"indices":23,
					"material":1
				}
			]
		}
	],
	"accessors":[
		{
			"bufferView":0,
			"componentType":5126,
			"count":4,
			"max":[
				1,
				0,
				1
			],
			"min":[
				-1,
				0,
				-1
			],
			"type":"VEC3"
		},
		{
			"bufferView":1,
			"componentType":5126,
			"count":4,
			"type":"VEC2"
		},
		{
			"bufferView":2,
			"componentType":5126,
			"count":4,
			"type":"VEC3"
		},
		{
			"bufferView":3,
			"componentType":5123,
			"count":6,
			"type":"SCALAR"
		},
		{
			"bufferView":4,
			"componentType":5126,
			"count":24,
			"max":[
				1,
				1,
				1
			],
			"min":[
				-1,
				-1,
				-1
			],
			"type":"VEC3"
		},
		{
			"bufferView":5,
			"componentType":5126,
			"count":24,
			"type":"VEC2"
		},
		{
			"bufferView":6,
			"componentType":5126,
			"count":24,
			"type":"VEC3"
		},
		{
			"bufferView":7,
			"componentType":5123,
			"count":36,
			"type":"SCALAR"
		},
		{
			"bufferView":8,
			"componentType":5126,
			"count":637,
			"max":[
				1.25,
				0.25,
				1.25
			],
			"min":[
				-1.25,
				-0.25,
				-1.25
			],
			"type":"VEC3"
		},
		{
			"bufferView":9,
			"componentType":5126,
			"count":637,
			"type":"VEC2"
		},
		{
			"bufferView":10,
			"componentType":5126,
			"count":637,
			"type":"VEC3"
		},
		{
			"bufferView":11,
			"componentType":5123,
			"count":3456,
			"type":"SCALAR"
		},
		{
			"bufferView":12,
			"componentType":5126,
			"count":535,
			"max":[
				1.3671875,
				0.984375,
				0.8515625
			],
			"min":[
				-1.3671875,
				-0.984375,
				-0.8515625
			],
			"type":"VEC3"
		},
		{
			"bufferView":13,
			"componentType":5126,
			"count":535,
			"type":"VEC2"
		},
		{
			"bufferView":14,
			"componentType":5126,
			"count":535,
			"type":"VEC3"
		},
		{
			"bufferView":15,
			"componentType":5123,
			"count":2628,
			"type":"SCALAR"
		},
		{
			"bufferView":16,
			"componentType":5126,
			"count":31,
			"max":[
				0.4765625,
				0.375,
				0.828125
			],
			"min":[
				-0.4765625,
				-0.875,
				0.6328125
			],
			"type":"VEC3"
		},
		{
			"bufferView":17,
			"componentType":5126,
			"count":31,
			"type":"VEC2"
		},
		{
			"bufferView":18,
			"componentType":5126,
			"count":31,
			"type":"VEC3"
		},
		{
			"bufferView":19,
			"componentType":5123,
			"count":90,
			"type":"SCALAR"
		},
		{
			"bufferView":20,
			"componentType":5126,
			"count":52,
			"max":[
				1.2578125,
				0.34375,
				0.828125
			],
			"min":[
				-1.2578125,
				-0.2890625,
				-0.4921875
			],
			"type":"VEC3"
		},
		{
			"bufferView":21,
			"componentType":5126,
			"count":52,
			"type":"VEC2"
		},
		{
			"bufferView":22,
			"componentType":5126,
			"count":52,
			"type":"VEC3"
		},
		{
			"bufferView":23,
			"componentType":5123,
			"count":186,
			"type":"SCALAR"
		}
	],
	"bufferViews":[
		{
			"buffer":0,
			"byteLength":48,
			"byteOffset":0,
			"target":34962
		},
		{
			"buffer":0,
			"byteLength":32,
			"byteOffset":48,
			"target":34962
		},
		{
			"buffer":0,
			"byteLength":48,
			"byteOffset":80,
			"target":34962
		},
		{
			"buffer":0,
			"byteLength":12,
			"byteOffset":128,
			"target":34963
		},
		{
			"buffer":0,
			"byteLength":288,
			"byteOffset":140,
			"target":34962
		},
		{
			"buffer":0,
			"byteLength":192,
			"byteOffset":428,
			"target":34962
		},
		{
			"buffer":0,
			"byteLength":288,
			"byteOffset":620,
			"target":34962
		},
		{
			"buffer":0,
			"byteLength":72,
			"byteOffset":908,
			"target":34963
		},
		{
			"buffer":0,
			"byteLength":7644,
			"byteOffset":980,
			"target":34962
		},
		{
			"buffer":0,
			"byteLength":5096,
			"byteOffset":8624,
			"target":34962
		},
		{
			"buffer":0,
			"byteLength":7644,
			"byteOffset":13720,
			"target":34962
		},
		{
			"buffer":0,
			"byteLength":6912,
			"byteOffset":21364,
			"target":34963
		},
		{
			"buffer":0,
			"byteLength":6420,
			"byteOffset":28276,
			"target":34962
		},
		{
			"buffer":0,
			"byteLength":4280,
			"byteOffset":34696,
			"target":34962
		},
		{
			"buffer":0,
			"byteLength":6420,
			"byteOffset":38976,
			"target":34962
		},
		{
			"buffer":0,
			"byteLength":5256,
			"byteOffset":45396,
			"target":34963
		},
		{
			"buffer":0,
			"byteLength":372,
			"byteOffset":50652,
			"target":34962
		},
		{
			"buffer":0,
			"byteLength":248,
			"byteOffset":51024,
			"target":34962
		},
		{
			"buffer":0,
			"byteLength":372,
			"byteOffset":51272,
			"target":34962
		},
		{
			"buffer":0,
			"byteLength":180,
			"byteOffset":51644,
			"target":34963
		},
		{
			"buffer":0,
			"byteLength":624,
			"byteOffset":51824,
			"target":34962
		},
		{
			"buffer":0,
			"byteLength":416,
			"byteOffset":52448,
			"target":34962
		},
		{
			"buffer":0,
			"byteLength":624,
			"byteOffset":52864,
			"target":34962
		},
		{
			"buffer":0,
			"byteLength":372,
			"byteOffset":53488,
			"target":34963
		}
	],
	"buffers":[
		{
			"byteLength":53860,
			"uri":"data:application/octet-stream;base64,"
		}
	]
}
