{
	"asset":{
		"generator":"Khronos glTF Blender I/O v3.5.30",
		"version":"2.0"
	},
	"extensionsUsed":[
		"KHR_lights_punctual"
	],
	"extensionsRequired":[
		"KHR_lights_punctual"
	],
	"extensions":{
		"KHR_lights_punctual":{
			"lights":[
				{
					"color":[
						1,
						1,
						1
					],
					"intensity":543.5141306588226,
					"type":"point",
					"name":"Point.006"
				},
				{
					"color":[
						0.45710450410842896,
						0.6154589056968689,
						1
					],
					"intensity":543.5141306588226,
					"type":"point",
					"name":"Point.007"
				}
			]
		}
	},
	"scene":0,
	"scenes":[
		{
			"name":"Scene",
			"nodes":[
				0,
				1,
				3,
				5
			]
		}
	],
	"nodes":[
		{
			"mesh":0,
			"name":"Cube"
		},
		{
			"camera":0,
			"name":"Camera",
			"rotation":[
				-0.14168767631053925,
				-0.4613268971443176,
				-0.08279867470264435,
				0.871921181678772
			],
			"translation":[
				-10.384915351867676,
				4.0972442626953125,
				5.971716403961182
			]
		},
		{
			"extensions":{
				"KHR_lights_punctual":{
					"light":0
				}
			},
			"name":"Point",
			"rotation":[
				-0.7071068286895752,
				0,
				0,
				0.7071068286895752
			]
		},
		{
			"children":[
				2
			],
			"mesh":1,
			"name":"Icosphere",
			"translation":[
				-5.923120975494385,
				1.0231727361679077,
				-1.3184503316879272
			]
		},
		{
			"extensions":{
				"KHR_lights_punctual":{
					"light":1
				}
			},
			"name":"Point.001",
			"rotation":[
				-0.7071068286895752,
				0,
				0,
				0.7071068286895752
			]
		},
		{
			"children":[
				4
			],
			"mesh":2,
			"name":"Icosphere.001",
			"translation":[
				-2.6060009002685547,
				2.31834077835083,
				3.086089849472046
			]
		}
	],
	"cameras":[
		{
			"name":"Camera.001",
			"perspective":{
				"aspectRatio":1.7777777777777777,
				"yfov":0.39959651231765747,
				"zfar":1000,
				"znear":0.10000000149011612
			},
			"type":"perspective"
		}
	],
	"materials":[
		{
			"doubleSided":true,
			"name":"Material.001",
			"pbrMetallicRoughness":{
				"baseColorTexture":{
					"index":0
				},
				"metallicFactor":0,
				"roughnessFactor":0.5
			}
		},
		{
			"doubleSided":true,
			"name":"Material.004",
			"pbrMetallicRoughness":{
				"baseColorFactor":[
					0.8000000715255737,
					0.038792114704847336,
					0.04285376891493797,
					1
				],
				"metallicFactor":0,
				"roughnessFactor":0.5
			}
		},
		{
			"doubleSided":true,
			"name":"Material.005",
			"pbrMetallicRoughness":{
				"baseColorFactor":[
					0.10792118310928345,
					0.8000000715255737,
					0.0474851094186306,
					1
				],
				"metallicFactor":0,
				"roughnessFactor":0.5
			}
		},
		{
			"doubleSided":true,
			"name":"Material.003",
			"pbrMetallicRoughness":{
				"baseColorFactor":[
					0.800000011920929,
					0.800000011920929,
					0.800000011920929,
					1
				],
				"metallicFactor":0,
				"roughnessFactor":0.5
			}
		}
	],
	"meshes":[
		{
			"name":"Cube.001",
			"primitives":[
				{
					"attributes":{
						"POSITION":0,
						"TEXCOORD_0":1,
						"NORMAL":2
					},
					"indices":3,
					"material":0
				},
				{
					"attributes":{
						"POSITION":4,
						"TEXCOORD_0":5,
						"NORMAL":6
					},
					"indices":7,
					"material":1
				},
				{
					"attributes":{
						"POSITION":8,
						"TEXCOORD_0":9,
						"NORMAL":10
					},
					"indices":11,
					"material":2
				}
			]
		},
		{
			"name":"Icosphere.002",
			"primitives":[
				{
					"attributes":{
						"POSITION":12,
						"TEXCOORD_0":13,
						"NORMAL":14
					},
					"indices":15,
					"material":3
				}
			]
		},
		{
			"name":"Icosphere.003",
			"primitives":[
				{
					"attributes":{
						"POSITION":16,
						"TEXCOORD_0":17,
						"NORMAL":18
					},
					"indices":15,
					"material":3
				}
			]
		}
	],
	"textures":[
		{
			"sampler":0,
			"source":0
		}
	],
	"images":[
		{
			"bufferView":4,
			"mimeType":"image/jpeg",
			"name":"360_F_246009570_v2KeBIxpzlloE9vjgPdyf928kjVpzFhl"
		}
	],
	"accessors":[
		{
			"bufferView":0,
			"componentType":5126,
			"count":22,
			"max":[
				1,
				1,
				1
			],
			"min":[
				-1,
				-1,
				-1
			],
			"type":"VEC3"
		},
		{
			"bufferView":1,
			"componentType":5126,
			"count":22,
			"type":"VEC2"
		},
		{
			"bufferView":2,
			"componentType":5126,
			"count":22,
			"type":"VEC3"
		},
		{
			"bufferView":3,
			"componentType":5123,
			"count":30,
			"type":"SCALAR"
		},
		{
			"bufferView":5,
			"componentType":5126,
			"count":3,
			"max":[
				1,
				1,
				1
			],
			"min":[
				-1,
				-1,
				1
			],
			"type":"VEC3"
		},
		{
			"bufferView":6,
			"componentType":5126,
			"count":3,
			"type":"VEC2"
		},
		{
			"bufferView":7,
			"componentType":5126,
			"count":3,
			"type":"VEC3"
		},
		{
			"bufferView":8,
			"componentType":5123,
			"count":3,
			"type":"SCALAR"
		},
		{
			"bufferView":9,
			"componentType":5126,
			"count":3,
			"max":[
				1,
				1,
				1
			],
			"min":[
				-1,
				1,
				-1
			],
			"type":"VEC3"
		},
		{
			"bufferView":10,
			"componentType":5126,
			"count":3,
			"type":"VEC2"
		},
		{
			"bufferView":11,
			"componentType":5126,
			"count":3,
			"type":"VEC3"
		},
		{
			"bufferView":12,
			"componentType":5123,
			"count":3,
			"type":"SCALAR"
		},
		{
			"bufferView":13,
			"componentType":5126,
			"count":63,
			"max":[
				0.058215588331222534,
				0.06121140718460083,
				0.06121140345931053
			],
			"min":[
				-0.058215588331222534,
				-0.06121140718460083,
				-0.06121140345931053
			],
			"type":"VEC3"
		},
		{
			"bufferView":14,
			"componentType":5126,
			"count":63,
			"type":"VEC2"
		},
		{
			"bufferView":15,
			"componentType":5126,
			"count":63,
			"type":"VEC3"
		},
		{
			"bufferView":16,
			"componentType":5123,
			"count":240,
			"type":"SCALAR"
		},
		{
			"bufferView":17,
			"componentType":5126,
			"count":63,
			"max":[
				0.058215588331222534,
				0.06121140718460083,
				0.06121140345931053
			],
			"min":[
				-0.058215588331222534,
				-0.06121140718460083,
				-0.06121140345931053
			],
			"type":"VEC3"
		},
		{
			"bufferView":18,
			"componentType":5126,
			"count":63,
			"type":"VEC2"
		},
		{
			"bufferView":19,
			"componentType":5126,
			"count":63,
			"type":"VEC3"
		}
	],
	"bufferViews":[
		{
			"buffer":0,
			"byteLength":264,
			"byteOffset":0,
			"target":34962
		},
		{
			"buffer":0,
			"byteLength":176,
			"byteOffset":264,
			"target":34962
		},
		{
			"buffer":0,
			"byteLength":264,
			"byteOffset":440,
			"target":34962
		},
		{
			"buffer":0,
			"byteLength":60,
			"byteOffset":704,
			"target":34963
		},
		{
			"buffer":0,
			"byteLength":87477,
			"byteOffset":764
		},
		{
			"buffer":0,
			"byteLength":36,
			"byteOffset":88244,
			"target":34962
		},
		{
			"buffer":0,
			"byteLength":24,
			"byteOffset":88280,
			"target":34962
		},
		{
			"buffer":0,
			"byteLength":36,
			"byteOffset":88304,
			"target":34962
		},
		{
			"buffer":0,
			"byteLength":6,
			"byteOffset":88340,
			"target":34963
		},
		{
			"buffer":0,
			"byteLength":36,
			"byteOffset":88348,
			"target":34962
		},
		{
			"buffer":0,
			"byteLength":24,
			"byteOffset":88384,
			"target":34962
		},
		{
			"buffer":0,
			"byteLength":36,
			"byteOffset":88408,
			"target":34962
		},
		{
			"buffer":0,
			"byteLength":6,
			"byteOffset":88444,
			"target":34963
		},
		{
			"buffer":0,
			"byteLength":756,
			"byteOffset":88452,
			"target":34962
		},
		{
			"buffer":0,
			"byteLength":504,
			"byteOffset":89208,
			"target":34962
		},
		{
			"buffer":0,
			"byteLength":756,
			"byteOffset":89712,
			"target":34962
		},
		{
			"buffer":0,
			"byteLength":480,
			"byteOffset":90468,
			"target":34963
		},
		{
			"buffer":0,
			"byteLength":756,
			"byteOffset":90948,
			"target":34962
		},
		{
			"buffer":0,
			"byteLength":504,
			"byteOffset":91704,
			"target":34962
		},
		{
			"buffer":0,
			"byteLength":756,
			"byteOffset":92208,
			"target":34962
		}
	],
	"samplers":[
		{
			"magFilter":9729,
			"minFilter":9987
		}
	],
	"buffers":[
		{
			"byteLength":92964,
			"uri":"data:application/octet-stream;base64,"
		}
	]
}
