{
	"asset":{
		"generator":"Khronos glTF Blender I/O v3.5.30",
		"version":"2.0"
	},
	"extensionsUsed":[
		"KHR_lights_punctual"
	],
	"extensionsRequired":[
		"KHR_lights_punctual"
	],
	"extensions":{
		"KHR_lights_punctual":{
			"lights":[
				{
					"color":[
						1,
						1,
						1
					],
					"intensity":108702.82613176452,
					"spot":{
						"innerConeAngle":0.7818202530158249,
						"outerConeAngle":0.9197885394096375
					},
					"type":"spot",
					"name":"Spot"
				},
				{
					"color":[
						1,
						1,
						1
					],
					"intensity":683,
					"type":"directional",
					"name":"Sun"
				}
			]
		}
	},
	"scene":0,
	"scenes":[
		{
			"name":"Scene",
			"nodes":[
				2,
				4,
				6,
				9,
				11,
				13,
				14,
				15,
				16,
				17
			]
		}
	],
	"nodes":[
		{
			"mesh":0,
			"name":"LP_Chunk_00.006_Material_2sided_0",
			"translation":[
				0,
				-1.0008574463427067e-05,
				-5.853999755345285e-05
			]
		},
		{
			"mesh":1,
			"name":"LP_Chunk_00.006_Material_Base_0",
			"translation":[
				0,
				-1.0008574463427067e-05,
				-5.853999755345285e-05
			]
		},
		{
			"children":[
				0,
				1
			],
			"name":"LP_Chunk_00.006",
			"rotation":[
				-0.70710688829422,
				0,
				0,
				0.7071066498756409
			],
			"scale":[
				0.010429157875478268,
				0.010429157875478268,
				0.010429157875478268
			],
			"translation":[
				10.58010196685791,
				-10.161356925964355,
				10.420011520385742
			]
		},
		{
			"mesh":2,
			"name":"LP_Chunk_00.005_Material_Base_0",
			"translation":[
				0,
				4.6472763642668724e-05,
				-9.436701657250524e-05
			]
		},
		{
			"children":[
				3
			],
			"name":"LP_Chunk_00.005",
			"rotation":[
				-0.70710688829422,
				0,
				0,
				0.7071066498756409
			],
			"scale":[
				0.010429157875478268,
				0.010429157875478268,
				0.010429157875478268
			],
			"translation":[
				-4.57381534576416,
				-10.00458812713623,
				-21.965526580810547
			]
		},
		{
			"mesh":3,
			"name":"LP_Chunk_00.004_Material_Base_0",
			"translation":[
				0,
				8.882358088158071e-05,
				6.049232979421504e-06
			]
		},
		{
			"children":[
				5
			],
			"name":"LP_Chunk_00.004",
			"rotation":[
				-0.058505136519670486,
				-0.7046824097633362,
				-0.7046821713447571,
				0.05850517004728317
			],
			"scale":[
				0.010429156944155693,
				0.010429159738123417,
				0.010429157875478268
			],
			"translation":[
				-3.1903727054595947,
				-1.7691994905471802,
				-16.489431381225586
			]
		},
		{
			"mesh":4,
			"name":"LP_Chunk_00.003_Material_Base_0",
			"translation":[
				-0.00019767534104175866,
				5.598035204457119e-05,
				-1.266472099814564e-05
			]
		},
		{
			"mesh":5,
			"name":"LP_Chunk_00.003_Material_Emission_0",
			"translation":[
				-0.00019767534104175866,
				5.598035204457119e-05,
				-1.266472099814564e-05
			]
		},
		{
			"children":[
				7,
				8
			],
			"name":"LP_Chunk_00.003",
			"rotation":[
				-0.6469521522521973,
				-0.2853996753692627,
				-0.28539982438087463,
				0.6469519734382629
			],
			"scale":[
				0.010429159738123417,
				0.010429163463413715,
				0.010429161600768566
			],
			"translation":[
				1.6793100833892822,
				-1.7691994905471802,
				-17.642086029052734
			]
		},
		{
			"mesh":6,
			"name":"LP_Chunk_00.002_Material_Base_0",
			"translation":[
				-3.5142074921168387e-06,
				-4.487403930397704e-05,
				4.1037310438696295e-05
			]
		},
		{
			"children":[
				10
			],
			"name":"LP_Chunk_00.002",
			"rotation":[
				-0.6943000555038452,
				-0.13396835327148438,
				-0.13396842777729034,
				0.6942999958992004
			],
			"scale":[
				0.010429158806800842,
				0.010429163463413715,
				0.010429161600768566
			],
			"translation":[
				-7.950771331787109,
				-10.161356925964355,
				-5.295251369476318
			]
		},
		{
			"mesh":7,
			"name":"LP_Chunk_00_Material_Base_0",
			"translation":[
				-3.0517578125e-05,
				-1.0008574463427067e-05,
				3.3968419302254915e-05
			]
		},
		{
			"children":[
				12
			],
			"name":"LP_Chunk_00",
			"rotation":[
				-0.70710688829422,
				0,
				0,
				0.7071066498756409
			],
			"scale":[
				0.010429157875478268,
				0.010429157875478268,
				0.010429157875478268
			],
			"translation":[
				-4.574186325073242,
				-10.161356925964355,
				-3.270570755004883
			]
		},
		{
			"camera":0,
			"name":"Camera",
			"rotation":[
				-0.13983853161334991,
				-0.00557721359655261,
				0.004704291000962257,
				0.9901475310325623
			],
			"scale":[
				10.011991500854492,
				10.011991500854492,
				10.01198959350586
			],
			"translation":[
				-6.254220962524414,
				19.94382095336914,
				70.7946548461914
			]
		},
		{
			"extensions":{
				"KHR_lights_punctual":{
					"light":0
				}
			},
			"name":"Spot",
			"rotation":[
				-0.8065226674079895,
				0.025774691253900528,
				-0.3792697787284851,
				0.45278170704841614
			],
			"scale":[
				0.1502363532781601,
				0.1502363234758377,
				0.1502363532781601
			],
			"translation":[
				1.0392597913742065,
				1.2624304294586182,
				-17.18637466430664
			]
		},
		{
			"extensions":{
				"KHR_lights_punctual":{
					"light":1
				}
			},
			"name":"Sun",
			"rotation":[
				-0.7071068286895752,
				0,
				0,
				0.7071068286895752
			],
			"scale":[
				10.011990547180176,
				10.01198959350586,
				10.01198959350586
			],
			"translation":[
				0.1334362030029297,
				14.328251838684082,
				-0.5193624496459961
			]
		},
		{
			"name":"Empty",
			"translation":[
				-9.234378814697266,
				-10.154279708862305,
				-12.241744995117188
			]
		}
	],
	"cameras":[
		{
			"name":"Camera.001",
			"perspective":{
				"aspectRatio":1.8148148148148149,
				"yfov":0.3916504462188741,
				"zfar":1000,
				"znear":0.10000000149011612
			},
			"type":"perspective"
		}
	],
	"materials":[
		{
			"doubleSided":true,
			"name":"Material_2sided",
			"normalTexture":{
				"index":0
			},
			"occlusionTexture":{
				"index":1
			},
			"pbrMetallicRoughness":{
				"baseColorTexture":{
					"index":2
				},
				"metallicRoughnessTexture":{
					"index":1
				}
			}
		},
		{
			"name":"Material_Base",
			"normalTexture":{
				"index":3
			},
			"occlusionTexture":{
				"index":4
			},
			"pbrMetallicRoughness":{
				"baseColorTexture":{
					"index":5
				},
				"metallicRoughnessTexture":{
					"index":4
				}
			}
		},
		{
			"emissiveFactor":[
				1,
				1,
				1
			],
			"name":"Material_Emission",
			"normalTexture":{
				"index":6
			},
			"pbrMetallicRoughness":{
				"baseColorTexture":{
					"index":7
				},
				"metallicRoughnessTexture":{
					"index":8
				}
			}
		}
	],
	"meshes":[
		{
			"name":"LP_Chunk_00.006_Material_2sided_0",
			"primitives":[
				{
					"attributes":{
						"POSITION":0,
						"TEXCOORD_0":1,
						"NORMAL":2
					},
					"indices":3,
					"material":0
				}
			]
		},
		{
			"name":"LP_Chunk_00.006_Material_Base_0",
			"primitives":[
				{
					"attributes":{
						"POSITION":4,
						"TEXCOORD_0":5,
						"NORMAL":6
					},
					"indices":7,
					"material":1
				}
			]
		},
		{
			"name":"LP_Chunk_00.005_Material_Base_0",
			"primitives":[
				{
					"attributes":{
						"POSITION":8,
						"TEXCOORD_0":9,
						"NORMAL":10
					},
					"indices":11,
					"material":1
				}
			]
		},
		{
			"name":"LP_Chunk_00.004_Material_Base_0",
			"primitives":[
				{
					"attributes":{
						"POSITION":12,
						"TEXCOORD_0":13,
						"NORMAL":14
					},
					"indices":15,
					"material":1
				}
			]
		},
		{
			"name":"LP_Chunk_00.003_Material_Base_0",
			"primitives":[
				{
					"attributes":{
						"POSITION":16,
						"TEXCOORD_0":17,
						"NORMAL":18
					},
					"indices":19,
					"material":1
				}
			]
		},
		{
			"name":"LP_Chunk_00.003_Material_Emission_0",
			"primitives":[
				{
					"attributes":{
						"POSITION":20,
						"TEXCOORD_0":21,
						"NORMAL":22
					},
					"indices":23,
					"material":2
				}
			]
		},
		{
			"name":"LP_Chunk_00.002_Material_Base_0",
			"primitives":[
				{
					"attributes":{
						"POSITION":24,
						"TEXCOORD_0":25,
						"NORMAL":26
					},
					"indices":27,
					"material":1
				}
			]
		},
		{
			"name":"LP_Chunk_00_Material_Base_0",
			"primitives":[
				{
					"attributes":{
						"POSITION":28,
						"TEXCOORD_0":29,
						"NORMAL":30
					},
					"indices":31,
					"material":1
				}
			]
		}
	],
	"textures":[
		{
			"sampler":0,
			"source":0
		},
		{
			"sampler":0,
			"source":1
		},
		{
			"sampler":0,
			"source":2
		},
		{
			"sampler":0,
			"source":0
		},
		{
			"sampler":0,
			"source":1
		},
		{
			"sampler":0,
			"source":2
		},
		{
			"sampler":0,
			"source":0
		},
		{
			"sampler":0,
			"source":2
		},
		{
			"sampler":0,
			"source":3
		}
	],
	"images":[
		{
			"bufferView":4,
			"mimeType":"image/png",
			"name":"Image_2"
		},
		{
			"bufferView":5,
			"mimeType":"image/png",
			"name":"Image_1"
		},
		{
			"bufferView":6,
			"mimeType":"image/png",
			"name":"Image_0"
		},
		{
			"bufferView":27,
			"mimeType":"image/png",
			"name":"Image_3"
		}
	],
	"accessors":[
		{
			"bufferView":0,
			"componentType":5126,
			"count":2090,
			"max":[
				591.5262451171875,
				563.6993408203125,
				1590.9840087890625
			],
			"min":[
				-686.567626953125,
				-562.6455078125,
				365.10595703125
			],
			"type":"VEC3"
		},
		{
			"bufferView":1,
			"componentType":5126,
			"count":2090,
			"type":"VEC2"
		},
		{
			"bufferView":2,
			"componentType":5126,
			"count":2090,
			"type":"VEC3"
		},
		{
			"bufferView":3,
			"componentType":5123,
			"count":5796,
			"type":"SCALAR"
		},
		{
			"bufferView":7,
			"componentType":5126,
			"count":586,
			"max":[
				331.07080078125,
				308.336669921875,
				1460.415771484375
			],
			"min":[
				-464.04205322265625,
				-277.9970703125,
				0.3498116433620453
			],
			"type":"VEC3"
		},
		{
			"bufferView":8,
			"componentType":5126,
			"count":586,
			"type":"VEC2"
		},
		{
			"bufferView":9,
			"componentType":5126,
			"count":586,
			"type":"VEC3"
		},
		{
			"bufferView":10,
			"componentType":5123,
			"count":2262,
			"type":"SCALAR"
		},
		{
			"bufferView":11,
			"componentType":5126,
			"count":2794,
			"max":[
				860.2789306640625,
				38.1649169921875,
				1810.0159912109375
			],
			"min":[
				-860.3499755859375,
				-675.9840087890625,
				-15.031795501708984
			],
			"type":"VEC3"
		},
		{
			"bufferView":12,
			"componentType":5126,
			"count":2794,
			"type":"VEC2"
		},
		{
			"bufferView":13,
			"componentType":5126,
			"count":2794,
			"type":"VEC3"
		},
		{
			"bufferView":14,
			"componentType":5123,
			"count":4962,
			"type":"SCALAR"
		},
		{
			"bufferView":15,
			"componentType":5126,
			"count":278,
			"max":[
				62.03726577758789,
				49.55842590332031,
				195.9618377685547
			],
			"min":[
				-62.55999755859375,
				-52.28250503540039,
				-0.06984127312898636
			],
			"type":"VEC3"
		},
		{
			"bufferView":16,
			"componentType":5126,
			"count":278,
			"type":"VEC2"
		},
		{
			"bufferView":17,
			"componentType":5126,
			"count":278,
			"type":"VEC3"
		},
		{
			"bufferView":18,
			"componentType":5123,
			"count":1290,
			"type":"SCALAR"
		},
		{
			"bufferView":19,
			"componentType":5126,
			"count":2288,
			"max":[
				99.7978515625,
				226.35772705078125,
				495.1223449707031
			],
			"min":[
				-99.79779052734375,
				-140.67091369628906,
				1.1920931797249068e-07
			],
			"type":"VEC3"
		},
		{
			"bufferView":20,
			"componentType":5126,
			"count":2288,
			"type":"VEC2"
		},
		{
			"bufferView":21,
			"componentType":5126,
			"count":2288,
			"type":"VEC3"
		},
		{
			"bufferView":22,
			"componentType":5123,
			"count":6558,
			"type":"SCALAR"
		},
		{
			"bufferView":23,
			"componentType":5126,
			"count":169,
			"max":[
				27.3880615234375,
				-21.69500732421875,
				387.9278564453125
			],
			"min":[
				-27.387939453125,
				-83.57866668701172,
				314.03399658203125
			],
			"type":"VEC3"
		},
		{
			"bufferView":24,
			"componentType":5126,
			"count":169,
			"type":"VEC2"
		},
		{
			"bufferView":25,
			"componentType":5126,
			"count":169,
			"type":"VEC3"
		},
		{
			"bufferView":26,
			"componentType":5123,
			"count":810,
			"type":"SCALAR"
		},
		{
			"bufferView":28,
			"componentType":5126,
			"count":3188,
			"max":[
				374.6893310546875,
				400.8573303222656,
				1223.8984375
			],
			"min":[
				-374.6892395019531,
				-333.1523132324219,
				-3.365497104823589e-05
			],
			"type":"VEC3"
		},
		{
			"bufferView":29,
			"componentType":5126,
			"count":3188,
			"type":"VEC2"
		},
		{
			"bufferView":30,
			"componentType":5126,
			"count":3188,
			"type":"VEC3"
		},
		{
			"bufferView":31,
			"componentType":5123,
			"count":11376,
			"type":"SCALAR"
		},
		{
			"bufferView":32,
			"componentType":5126,
			"count":2254,
			"max":[
				2389.3740234375,
				1882.221435546875,
				2500.00048828125
			],
			"min":[
				-2401.16064453125,
				-1882.221435546875,
				0
			],
			"type":"VEC3"
		},
		{
			"bufferView":33,
			"componentType":5126,
			"count":2254,
			"type":"VEC2"
		},
		{
			"bufferView":34,
			"componentType":5126,
			"count":2254,
			"type":"VEC3"
		},
		{
			"bufferView":35,
			"componentType":5123,
			"count":3888,
			"type":"SCALAR"
		}
	],
	"bufferViews":[
		{
			"buffer":0,
			"byteLength":25080,
			"byteOffset":0,
			"target":34962
		},
		{
			"buffer":0,
			"byteLength":16720,
			"byteOffset":25080,
			"target":34962
		},
		{
			"buffer":0,
			"byteLength":25080,
			"byteOffset":41800,
			"target":34962
		},
		{
			"buffer":0,
			"byteLength":11592,
			"byteOffset":66880,
			"target":34963
		},
		{
			"buffer":0,
			"byteLength":352514,
			"byteOffset":78472
		},
		{
			"buffer":0,
			"byteLength":665624,
			"byteOffset":430988
		},
		{
			"buffer":0,
			"byteLength":568529,
			"byteOffset":1096612
		},
		{
			"buffer":0,
			"byteLength":7032,
			"byteOffset":1665144,
			"target":34962
		},
		{
			"buffer":0,
			"byteLength":4688,
			"byteOffset":1672176,
			"target":34962
		},
		{
			"buffer":0,
			"byteLength":7032,
			"byteOffset":1676864,
			"target":34962
		},
		{
			"buffer":0,
			"byteLength":4524,
			"byteOffset":1683896,
			"target":34963
		},
		{
			"buffer":0,
			"byteLength":33528,
			"byteOffset":1688420,
			"target":34962
		},
		{
			"buffer":0,
			"byteLength":22352,
			"byteOffset":1721948,
			"target":34962
		},
		{
			"buffer":0,
			"byteLength":33528,
			"byteOffset":1744300,
			"target":34962
		},
		{
			"buffer":0,
			"byteLength":9924,
			"byteOffset":1777828,
			"target":34963
		},
		{
			"buffer":0,
			"byteLength":3336,
			"byteOffset":1787752,
			"target":34962
		},
		{
			"buffer":0,
			"byteLength":2224,
			"byteOffset":1791088,
			"target":34962
		},
		{
			"buffer":0,
			"byteLength":3336,
			"byteOffset":1793312,
			"target":34962
		},
		{
			"buffer":0,
			"byteLength":2580,
			"byteOffset":1796648,
			"target":34963
		},
		{
			"buffer":0,
			"byteLength":27456,
			"byteOffset":1799228,
			"target":34962
		},
		{
			"buffer":0,
			"byteLength":18304,
			"byteOffset":1826684,
			"target":34962
		},
		{
			"buffer":0,
			"byteLength":27456,
			"byteOffset":1844988,
			"target":34962
		},
		{
			"buffer":0,
			"byteLength":13116,
			"byteOffset":1872444,
			"target":34963
		},
		{
			"buffer":0,
			"byteLength":2028,
			"byteOffset":1885560,
			"target":34962
		},
		{
			"buffer":0,
			"byteLength":1352,
			"byteOffset":1887588,
			"target":34962
		},
		{
			"buffer":0,
			"byteLength":2028,
			"byteOffset":1888940,
			"target":34962
		},
		{
			"buffer":0,
			"byteLength":1620,
			"byteOffset":1890968,
			"target":34963
		},
		{
			"buffer":0,
			"byteLength":382633,
			"byteOffset":1892588
		},
		{
			"buffer":0,
			"byteLength":38256,
			"byteOffset":2275224,
			"target":34962
		},
		{
			"buffer":0,
			"byteLength":25504,
			"byteOffset":2313480,
			"target":34962
		},
		{
			"buffer":0,
			"byteLength":38256,
			"byteOffset":2338984,
			"target":34962
		},
		{
			"buffer":0,
			"byteLength":22752,
			"byteOffset":2377240,
			"target":34963
		},
		{
			"buffer":0,
			"byteLength":27048,
			"byteOffset":2399992,
			"target":34962
		},
		{
			"buffer":0,
			"byteLength":18032,
			"byteOffset":2427040,
			"target":34962
		},
		{
			"buffer":0,
			"byteLength":27048,
			"byteOffset":2445072,
			"target":34962
		},
		{
			"buffer":0,
			"byteLength":7776,
			"byteOffset":2472120,
			"target":34963
		}
	],
	"samplers":[
		{
			"magFilter":9729,
			"minFilter":9987
		}
	],
	"buffers":[
		{
			"byteLength":2479896,
			"uri":"data:application/octet-stream;base64,"
		}
	]
}
